<?xml version="1.0" encoding="utf-8"?>
<!-- Generator: Adobe Illustrator 19.0.0, SVG Export Plug-In . SVG Version: 6.00 Build 0)  -->
<svg version="1.0" id="AH_Logo" xmlns="http://www.w3.org/2000/svg" xmlns:xlink="http://www.w3.org/1999/xlink" x="0px" y="0px"
	 width="36px" height="28px" viewBox="0 0 36 28" style="enable-background:new 0 0 36 28;" xml:space="preserve">
<style type="text/css">
	.st0{fill:none;}
	.st1{fill:#FFFFFF;}
</style>
	<rect id="Block" class="st0" width="36" height="28"/>
	<path id="Logo" class="st1" d=" M34.5445328,12.9911242v12.6774225
	c0,0.1324806-0.1074104,0.2398891-0.2399101,0.2398891h-3.8382511c-0.1324997,0-0.2398872-0.1074085-0.2398872-0.2398891V13.4709215
	c0-2.2799196-1.5311909-2.8787184-2.8787174-2.8787184c-1.1188641,0-2.0289917,0.5218468-2.6816788,1.0787182
	c-0.7408638,0.632102-1.1566124,1.564044-1.1566124,2.5378723v6.9017982c0,4.3380165-3.3384819,5.2776394-6.2372093,5.2776394
	c-2.1989965,0-4.3380594-0.9795837-5.3901501-2.6002407c-0.5675631,0.6599998-2.5393066,2.6002407-6.1247025,2.6002407
	C2.798754,26.3882313,0,24.4273643,0,21.1105919c0-3.3285065,2.3789499-6.2372103,7.676559-6.2372103
	c1.4393687,0,3.3584943,0.4797754,3.3584943,0.4797754v-1.9191446c0-2.3834782-0.9895372-3.3584938-3.3584943-3.3584938
	c-1.8911867,0-4.607132,0.8525934-5.5175257,1.1848154c-0.1362901,0.0497313-0.2835983-0.0320139-0.3150591-0.1736078
	L1.4452055,9.355813C1.4208931,9.246377,1.4739625,9.1349945,1.5754726,9.0873528
	c1.1585779-0.5435991,4.5218239-1.890532,6.8207712-1.890532c4.8709431,0,6.9567518,1.9790969,6.9567518,7.1967635
	l0.000144,7.9164896c0,1.0991383,0.9240761,1.9825172,2.0377369,1.9155197
	c0.9935112-0.0597878,1.8005524-0.9953556,1.8005524-1.9906483L19.1914101,1.0929488
	c0-0.1124271,0.0780983-0.2097996,0.1878643-0.2341735l3.8382893-0.8529625
	c0.149807-0.0333041,0.2919121,0.0807205,0.2919121,0.2341735v9.8724413c0,0,1.9391556-2.8787184,5.2776394-2.8787184
	C32.0345726,7.2337093,34.5445328,9.5360975,34.5445328,12.9911242z M11.0350533,18.0944386
	c0-0.2101479-0.1362276-0.3944263-0.336503-0.4580021c-0.4472914-0.141964-1.2733603-0.3641338-2.062417-0.3641338
	c-2.858707,0-4.3180666,1.4793301-4.3180666,3.3584938c0,1.8791428,1.1195168,2.8787174,2.8787165,2.8787174
	c2.2753725,0,3.4305916-1.3441887,3.7468576-1.782671c0.0597878-0.0828934,0.0914125-0.1800594,0.0914125-0.2822456V18.0944386z
	 "/>
</svg>
