<?xml version="1.0" encoding="utf-8"?>
<!-- Generator: Adobe Illustrator 19.0.0, SVG Export Plug-In . SVG Version: 6.00 Build 0)  -->
<svg version="1.0" id="AH_Logo" xmlns="http://www.w3.org/2000/svg" xmlns:xlink="http://www.w3.org/1999/xlink" x="0px" y="0px"
	 width="82px" height="28px" viewBox="0 0 82 28" style="enable-background:new 0 0 82 28;" xml:space="preserve">
<style type="text/css">
	.st0{fill:none;}
	.st1{fill:#FFFFFF;}
</style>
<rect id="Block" class="st0" width="82" height="28"/>
<path id="Logo" class="st1" d="M53.7031479,15.8329535L52.0241356,10.7577h1.333477l1.0841904,4.0870876L55.5548248,10.7577
	h1.2662315l-1.6499863,5.0752535H53.7031479z M51.7968864,23.3658924c0,1.6024075-0.8923302,2.6863899-2.3890915,2.6863899
	c-1.4965134,0-2.3888435-1.0169849-2.3888435-2.6863899c0-1.592556,0.8923302-2.6765366,2.3984718-2.6765366
	C50.9141617,20.6893559,51.7968864,21.7063389,51.7968864,23.3658924z M50.5016098,23.3658924
	c0-1.2088203-0.3741302-1.7460079-1.0841866-1.7460079c-0.7194786,0-1.1031952,0.546793-1.1031952,1.7460079
	c0,1.2184486,0.3741302,1.7558613,1.0935669,1.7558613C50.1274796,25.1217537,50.5016098,24.5749798,50.5016098,23.3658924z
	 M46.7666512,13.3002424c0-1.563983,0.7770576-2.6863689,2.062748-2.6863689c0.5179749,0,0.9401131,0.2206755,1.256855,0.5467739
	V8.5895319l1.2280502,0.1342402v7.1091814h-1.0842056l-0.0864563-0.6428556
	c-0.3068848,0.4605846-0.7866821,0.7869072-1.4487305,0.7869072C47.4286804,15.977005,46.7666512,14.9120312,46.7666512,13.3002424z
	 M48.0616837,13.2906361c0,1.3046579,0.3743515,1.7556362,0.9787827,1.7556362c0.4507332,0,0.7578659-0.2206964,1.0457878-0.652462
	v-2.3216219c-0.2687302-0.3359289-0.5566292-0.5373926-0.9595566-0.5373926
	C48.4838409,11.5347958,48.0616837,12.0721884,48.0616837,13.2906361z M44.4084702,9.2035685l2.0531616,6.629385h-1.3431053
	l-0.4125328-1.5349598h-2.1972313l-0.4125328,1.5349598h-1.3144875l2.0629692-6.629385H44.4084702z M44.4565048,13.3384218
	l-0.8539047-3.1658993l-0.8443222,3.1658993H44.4565048z M34.5445328,12.9911242v12.6774225
	c0,0.1324806-0.1074104,0.2398891-0.2399101,0.2398891h-3.8382511c-0.1324997,0-0.2398872-0.1074085-0.2398872-0.2398891V13.4709215
	c0-2.2799196-1.5311909-2.8787184-2.8787174-2.8787184c-1.1188641,0-2.0289917,0.5218468-2.6816788,1.0787182
	c-0.7408638,0.632102-1.1566124,1.564044-1.1566124,2.5378723v6.9017982c0,4.3380165-3.3384819,5.2776394-6.2372093,5.2776394
	c-2.1989965,0-4.3380594-0.9795837-5.3901501-2.6002407c-0.5675631,0.6599998-2.5393066,2.6002407-6.1247025,2.6002407
	C2.798754,26.3882313,0,24.4273643,0,21.1105919c0-3.3285065,2.3789499-6.2372103,7.676559-6.2372103
	c1.4393687,0,3.3584943,0.4797754,3.3584943,0.4797754v-1.9191446c0-2.3834782-0.9895372-3.3584938-3.3584943-3.3584938
	c-1.8911867,0-4.607132,0.8525934-5.5175257,1.1848154c-0.1362901,0.0497313-0.2835983-0.0320139-0.3150591-0.1736078
	L1.4452055,9.355813C1.4208931,9.246377,1.4739625,9.1349945,1.5754726,9.0873528
	c1.1585779-0.5435991,4.5218239-1.890532,6.8207712-1.890532c4.8709431,0,6.9567518,1.9790969,6.9567518,7.1967635
	l0.000144,7.9164896c0,1.0991383,0.9240761,1.9825172,2.0377369,1.9155197
	c0.9935112-0.0597878,1.8005524-0.9953556,1.8005524-1.9906483L19.1914101,1.0929488
	c0-0.1124271,0.0780983-0.2097996,0.1878643-0.2341735l3.8382893-0.8529625
	c0.149807-0.0333041,0.2919121,0.0807205,0.2919121,0.2341735v9.8724413c0,0,1.9391556-2.8787184,5.2776394-2.8787184
	C32.0345726,7.2337093,34.5445328,9.5360975,34.5445328,12.9911242z M11.0350533,18.0944386
	c0-0.2101479-0.1362276-0.3944263-0.336503-0.4580021c-0.4472914-0.141964-1.2733603-0.3641338-2.062417-0.3641338
	c-2.858707,0-4.3180666,1.4793301-4.3180666,3.3584938c0,1.8791428,1.1195168,2.8787174,2.8787165,2.8787174
	c2.2753725,0,3.4305916-1.3441887,3.7468576-1.782671c0.0597878-0.0828934,0.0914125-0.1800594,0.0914125-0.2822456V18.0944386z
	 M44.8880196,21.9363747h-2.3600464v-2.6575489h-1.2664566v6.6296101h1.2664566v-2.9646816h2.3600464v2.9646816h1.2760658
	v-6.6296101h-1.2760658V21.9363747z M66.3113174,20.6893559c-0.6428299,0-1.1511841,0.3069057-1.5445404,0.8155003
	l-0.0960236-0.6716537h-1.0650139v5.0752335h1.228054v-3.5306892c0.2975235-0.469944,0.6236191-0.7674694,1.0649948-0.7674694
	c0.3837357,0,0.6236191,0.182251,0.6236191,0.8155003v3.4826584h1.228035v-3.6745358
	C67.7504425,21.264967,67.2228851,20.6893559,66.3113174,20.6893559z M73.457962,21.1016617
	c-0.3837128,0.1344872-0.8635101,0.1728916-1.4679184,0.1728916c0.6140366,0.2780876,0.9211426,0.6714287,0.9211426,1.304657
	c0,0.9881668-0.7677155,1.7078514-2.0437775,1.7078514c-0.2204285,0-0.4122849-0.0192127-0.6043854-0.0768509
	c-0.1246567,0.0864353-0.2110901,0.2206764-0.2110901,0.3741302c0,0.1824951,0.1056442,0.3551407,0.6140366,0.3551407h0.777298
	c1.1223831,0,1.8516541,0.6044102,1.8516541,1.4391232C73.2949219,27.3955898,72.4218063,28,70.7620087,28
	c-1.8036423,0-2.3122635-0.575613-2.3122635-1.592577h1.1034241c0,0.5083694,0.2206726,0.7290459,1.228035,0.7290459
	c0.9881668,0,1.2760773-0.2686863,1.2760773-0.6716328c0-0.3741493-0.2975235-0.6044121-0.8635101-0.6044121h-0.7674866
	c-1.0169678,0-1.4487076-0.4509773-1.4487076-0.9785595c0-0.3549156,0.2206726-0.7100773,0.5948029-0.940134
	c-0.6236191-0.3263226-0.8923492-0.7773018-0.8923492-1.4295177c0-1.1034184,0.8731384-1.8228569,2.1011734-1.8228569
	c1.1992493,0.0285721,1.7556381-0.2398891,2.3696518-0.5662327L73.457962,21.1016617z M71.7213364,22.4833946
	c0-0.6428356-0.3068848-0.9595718-0.9209213-0.9595718c-0.5563812,0-0.8827286,0.3839798-0.8827286,0.9691982
	c0,0.6139965,0.3357086,0.9977322,0.9019394,0.9977322C71.4048233,23.4907532,71.7213364,23.1262302,71.7213364,22.4833946z
	 M63.8407326,12.3022661c0.2975044-0.469965,0.6236229-0.7674704,1.0649757-0.7674704
	c0.3837509,0,0.623642,0.182251,0.623642,0.8154802v3.4826775h1.228035v-3.6745348
	c0-0.9689531-0.527565-1.5445452-1.4391022-1.5445452c-0.6428604,0-1.1512299,0.3068857-1.544548,0.8154802L63.6776733,10.7577
	h-1.0650177v5.0752535h1.2280769V12.3022661z M54.7833595,22.8383102c-0.8635101-0.2398872-1.0649719-0.3933201-1.0649719-0.729044
	c0-0.3071117,0.2782898-0.5085945,0.7674522-0.5085945c0.4509735,0,0.85392,0.1438255,1.2760582,0.4125538l0.4797974-0.7194595
	c-0.4797974-0.3743553-1.0746002-0.6044102-1.8036461-0.6044102c-1.1802483,0-1.9573212,0.6330032-1.9573212,1.4773216
	c0,0.7484837,0.4605637,1.2472458,1.5063438,1.5351658c0.9497414,0.2684803,1.151207,0.4029465,1.151207,0.8251057
	c0,0.3837357-0.3549194,0.6139965-0.9017105,0.6139965c-0.5181808,0-0.9883728-0.2014637-1.3817139-0.4989681l-0.6140175,0.6908455
	c0.470192,0.4221592,1.151432,0.7194595,2.0243225,0.7194595c1.1610374,0,2.139576-0.5564003,2.139576-1.6117897
	C56.4047356,23.538784,55.8195572,23.1166439,54.7833595,22.8383102z M76.6035233,13.1753626
	c0,0.1630592-0.0191879,0.364543-0.0288162,0.4990082h-3.1851349c0.0958176,1.0361767,0.5756149,1.3719015,1.2472687,1.3719015
	c0.4507294,0,0.8250809-0.1438675,1.2662125-0.4509783l0.5085907,0.7004719
	c-0.4989624,0.4029474-1.1130066,0.6812391-1.8804703,0.6812391c-1.573349,0-2.4176865-1.0457611-2.4176865-2.6481695
	c0-1.5445652,0.8155212-2.714962,2.2546463-2.714962C75.7880249,10.6138735,76.6035233,11.5732002,76.6035233,13.1753626z
	 M75.3850784,12.820446c0-0.834713-0.2975082-1.3336811-0.9881439-1.3336811c-0.575592,0-0.9403458,0.3839808-1.0073624,1.3913383
	h1.9955063V12.820446z M81.9289703,8.723772v7.1091814h-1.0842285l-0.0864334-0.6428556
	c-0.3068848,0.4605846-0.7866669,0.7869072-1.4487305,0.7869072c-1.2662125,0-1.9282761-1.0649738-1.9282761-2.6767626
	c0-1.563983,0.777092-2.6863689,2.062767-2.6863689c0.517952,0,0.9401093,0.2206755,1.2568436,0.5467739V8.5895319
	L81.9289703,8.723772z M80.7009125,12.0721884c-0.2687073-0.3359289-0.5566254-0.5373926-0.9595718-0.5373926
	c-0.6428375,0-1.0649719,0.5373926-1.0649719,1.7558403c0,1.3046579,0.3743515,1.7556362,0.9787445,1.7556362
	c0.4507523,0,0.7578812-0.2206964,1.0457993-0.652462V12.0721884z M71.7663116,15.3915615l-0.5467682-0.7770557
	c-0.3741531,0.2398882-0.6428528,0.3645229-1.0265732,0.3645229c-0.6908875,0-1.1415939-0.4315195-1.1415939-1.6595736
	c0-1.2186937,0.4317398-1.7366285,1.1415939-1.7366285c0.3837204,0,0.6908646,0.1150284,1.0265732,0.364502l0.5467682-0.7386503
	c-0.4795303-0.4125328-0.9881668-0.5948048-1.6501923-0.5948048c-1.458107,0-2.3696518,1.1031733-2.3696518,2.7245483
	c0,1.6216202,0.9115448,2.6385832,2.3792572,2.6385832C70.7781448,15.977005,71.3059769,15.7659559,71.7663116,15.3915615z
	 M59.3757706,25.0641155c-0.3741341,0-0.5371933-0.2014618-0.5371933-0.7002258v-2.6481895h1.0553932l0.12463-0.8824978h-1.1800232
	v-1.2664585l-1.2280312,0.1438255v1.122633h-0.7962875v0.8824978h0.7962875v2.6767616
	c0,1.0842285,0.5275612,1.6501942,1.5253334,1.6598206c0.4509773,0,0.911541-0.1246548,1.276062-0.3837357l-0.4317665-0.7962875
	C59.7595024,25.0065002,59.5676422,25.0641155,59.3757706,25.0641155z M61.4174156,15.9578133
	c-0.5563812-0.0480309-0.9209023-0.2398882-1.1223869-0.7388964c-0.3549156,0.5374126-0.911541,0.7580881-1.5159492,0.7580881
	c-1.016964,0-1.6405869-0.6428146-1.6405869-1.563983c0-1.1031733,0.8346901-1.6982231,2.3122406-1.6982231h0.6332283v-0.287673
	c0-0.6620684-0.2975235-0.8827438-0.9497414-0.8827438c-0.3455353,0-0.834671,0.0960617-1.3433075,0.2687063l-0.287674-0.834713
	c0.6236229-0.2398882,1.2662315-0.364502,1.8420715-0.364502c1.3526649,0,1.9474907,0.6236229,1.9474907,1.7460089v2.1299686
	c0,0.4125538,0.134243,0.5564213,0.3837395,0.652442L61.4174156,15.9578133z M60.0839615,13.4344835H59.575367
	c-0.7962875,0-1.1896286,0.2879181-1.1896286,0.8827229c0,0.4891777,0.2495117,0.7674694,0.7196846,0.7674694
	c0.4317474,0,0.7482567-0.2206755,0.9785385-0.6236229V13.4344835z M61.6884766,18.2620869
	c-0.4507294,0-0.7674675,0.3260975-0.7674675,0.7482567c0,0.4125538,0.3167381,0.7386723,0.7674675,0.7386723
	c0.4605637,0,0.7773018-0.3261185,0.7773018-0.7386723C62.4657784,18.5881844,62.1490402,18.2620869,61.6884766,18.2620869z
	 M61.0840683,25.9084358h1.228035v-5.0752335h-1.228035V25.9084358z"/>
</svg>
